Coordinates
version=1
nRows=9
nColumns=24
inDegrees=yes

Units are S.I. units (second, meters, Newtons, ...)
Angles are in degrees.

endheader
time	pelvis_tilt	pelvis_list	pelvis_rotation	pelvis_tx	pelvis_ty	pelvis_tz	hip_flexion_r	hip_adduction_r	hip_rotation_r	knee_angle_r	ankle_angle_r	subtalar_angle_r	mtp_angle_r	hip_flexion_l	hip_adduction_l	hip_rotation_l	knee_angle_l	ankle_angle_l	subtalar_angle_l	mtp_angle_l	lumbar_extension	lumbar_bending	lumbar_rotation
      4.98000000	     -0.60145200	     -7.60405559	    -16.43165922	      1.41092795	      0.68153171	     -0.23502790	    -23.45356463	      9.23991609	     24.37105001	     -6.10050800	     19.37643371	     -2.48752347	      0.00000000	     17.32765032	     -9.12410855	      6.53118393	      7.56451667	     -0.00154814	    -21.46233376	      0.00000000	    -18.30699023	      8.27150293	      7.66778970
      4.99000000	     -0.37677673	     -7.09878418	    -16.13534481	      1.42582977	      0.68209717	     -0.23583863	    -22.98712515	      8.74211426	     20.23272505	     -9.18231196	     19.64409428	      2.09677203	      0.00000000	     17.34041136	     -7.91937632	      7.81463544	      5.76130624	     -1.18145996	    -23.12093002	      0.00000000	    -18.01058860	      7.71635077	      7.42071554
      5.00000000	     -0.09343539	     -6.33826162	    -15.82208739	      1.44095220	      0.68301472	     -0.23675767	    -22.21063579	      7.86144986	     16.11752646	    -12.68490503	     19.27145544	      6.17315750	      0.00000000	     17.39846269	     -6.38711494	      9.07637534	      3.65656595	     -2.52193009	    -24.41498146	      0.00000000	    -17.65613402	      6.84373686	      7.11680652
      5.01000000	      0.23413939	     -5.36958476	    -15.48195043	      1.45627701	      0.68419543	     -0.23781280	    -21.19068680	      6.63431591	     12.32475425	    -16.50299958	     18.09100614	      9.43980378	      0.00000000	     17.49152192	     -4.57867969	     10.22478061	      1.36332858	     -3.85205830	    -25.33037953	      0.00000000	    -17.25069345	      5.73849456	      6.78626337
      5.02000000	      0.61577705	     -4.24703642	    -15.11865092	      1.47168677	      0.68558426	     -0.23891297	    -19.97330231	      5.14702594	      9.06337937	    -20.59884139	     16.10637520	     11.77788119	      0.00000000	     17.55136535	     -2.58266955	     11.25647771	     -0.99098913	     -5.03734259	    -25.84962072	      0.00000000	    -16.85080296	      4.43287882	      6.41929090
      5.03000000	      1.08801997	     -2.97433949	    -14.78799669	      1.48713844	      0.68714617	     -0.23987449	    -18.61046480	      3.42662057	      6.44125213	    -24.93300577	     13.42625141	     13.17626199	      0.00000000	     17.46444103	     -0.43870219	     11.98274850	     -3.26684570	     -5.89475227	    -25.92133618	      0.00000000	    -16.51664933	      2.87401431	      5.98229906
      5.04000000	      1.42487901	     -1.76300684	    -14.47507366	      1.50223268	      0.68859466	     -0.24089770	    -16.81222151	      1.76041181	      4.31151129	    -29.58216652	     10.18630946	     13.87109669	      0.00000000	     17.46336682	      1.58248864	     12.63389236	     -5.47063486	     -6.41303718	    -25.78315282	      0.00000000	    -16.16098440	      1.43007888	      5.71930093
      5.05000000	      1.65862726	     -0.50792989	    -14.28541838	      1.51704904	      0.68986907	     -0.24166505	    -14.63028505	      0.06756779	      2.83573741	    -34.43438421	      6.65275598	     13.78224403	      0.00000000	     17.42677096	      3.53526096	     12.86058052	     -7.41214188	     -6.49091928	    -25.38873936	      0.00000000	    -15.73492605	     -0.09775581	      5.46082279
      5.06000000	      1.52159494	      0.67423165	    -14.28768275	      1.53135616	      0.69065865	     -0.24215000	    -11.74478380	     -1.42996358	      2.05116095	    -39.48564788	      3.03000326	     12.93520561	      0.00000000	     17.62027575	      5.20470340	     12.67455953	     -9.06359235	     -6.03064212	    -24.80399521	      0.00000000	    -14.97908802	     -1.47484056	      5.36784320
